<?xml version="1.0" standalone="no"?>
<!DOCTYPE svg PUBLIC "-//W3C//DTD SVG 20010904//EN"
 "http://www.w3.org/TR/2001/REC-SVG-20010904/DTD/svg10.dtd">
<svg version="1.0" xmlns="http://www.w3.org/2000/svg"
 width="2055.000000pt" height="1772.000000pt" viewBox="0 0 2055.000000 1772.000000"
 preserveAspectRatio="xMidYMid meet">

<g transform="translate(0.000000,1772.000000) scale(0.100000,-0.100000)"
fill="#000000" stroke="none">
<path d="M13622 17678 c-16 -24 -576 -882 -1244 -1908 -668 -1026 -1347 -2067
-1508 -2315 -433 -665 -406 -622 -379 -602 205 146 435 224 689 234 176 6 297
-11 445 -63 55 -20 111 -36 125 -36 14 -1 82 24 153 56 314 139 717 240 1147
288 168 18 604 15 768 -5 954 -120 1521 -591 1637 -1362 8 -55 15 -122 15
-150 l0 -50 88 -50 c385 -218 750 -543 1025 -913 201 -271 394 -654 490 -972
329 -1084 93 -2230 -635 -3095 -103 -122 -331 -344 -453 -441 -639 -506 -1418
-756 -2225 -713 -180 9 -198 11 -375 40 -710 117 -1397 493 -1880 1028 -54 61
-102 111 -105 111 -4 0 -164 -105 -356 -233 -452 -302 -852 -551 -1246 -776
-71 -40 -128 -75 -128 -77 0 -11 201 -256 310 -378 759 -848 1813 -1445 2929
-1661 382 -73 572 -90 1031 -90 420 0 540 9 878 65 2268 379 4038 2182 4381
4460 75 501 75 1079 0 1580 -86 571 -246 1072 -509 1595 -271 540 -574 960
-995 1380 -788 788 -1784 1302 -2877 1485 -340 56 -457 65 -890 65 -349 0
-395 2 -387 15 4 8 237 366 517 795 l509 780 2359 5 2359 5 627 965 c345 531
627 968 628 973 0 4 -1550 7 -3445 7 l-3444 0 -29 -42z"/>
<path d="M4905 14169 c-1403 -111 -2713 -780 -3630 -1854 -477 -558 -845
-1235 -1050 -1928 -299 -1014 -297 -2072 6 -3077 81 -268 222 -625 244 -616 7
2 336 217 732 477 395 260 781 514 859 565 l141 92 -38 132 c-88 308 -123 570
-122 915 1 435 71 800 229 1200 172 433 417 799 760 1136 539 528 1221 845
1979 919 163 16 508 14 671 -5 322 -37 630 -117 914 -237 399 -168 802 -446
1095 -755 l60 -63 180 115 c456 292 1220 732 1548 891 31 16 57 31 57 35 0 3
-58 76 -129 160 -480 574 -1051 1025 -1722 1358 -606 301 -1230 476 -1914 536
-187 16 -682 18 -870 4z"/>
<path d="M11052 12551 c-394 -100 -634 -501 -537 -894 5 -20 -10 -29 -152 -96
-643 -300 -1491 -777 -2166 -1218 l-158 -103 -1268 0 -1268 0 -274 -422 c-151
-232 -275 -427 -277 -435 -3 -10 12 -13 61 -13 l65 0 97 110 c104 117 230 234
333 307 240 172 416 228 700 221 l123 -3 -747 -1150 c-410 -632 -773 -1189
-805 -1236 -66 -96 -151 -182 -220 -222 -69 -40 -186 -67 -295 -67 l-94 0 -39
-62 -40 -63 254 -3 c140 -1 255 -5 255 -9 0 -3 -29 -44 -64 -92 -264 -357
-458 -722 -554 -1041 -60 -199 -68 -442 -19 -595 88 -273 332 -441 732 -507
134 -22 556 -16 752 10 1315 177 3156 973 4929 2133 l151 99 309 0 309 0 43
65 42 65 -72 0 c-100 0 -198 17 -228 39 -19 15 -24 27 -23 52 3 41 -11 29 303
257 135 98 310 228 390 289 79 62 146 110 148 109 3 -4 -83 -792 -93 -848 l-4
-28 523 0 523 0 42 63 41 62 -73 6 c-121 11 -178 48 -193 128 -7 35 18 368 58
766 11 115 18 247 16 310 -3 97 -6 116 -29 157 l-27 46 146 134 c319 291 648
625 907 921 117 135 130 147 161 147 44 0 43 -11 -2 -97 -45 -85 -74 -167 -74
-207 0 -44 34 -95 75 -112 44 -18 154 -18 225 1 145 38 301 154 390 291 60 92
83 166 78 248 -8 133 -92 196 -272 204 -55 2 -125 0 -154 -6 -50 -9 -52 -8
-40 9 309 431 471 721 571 1020 59 179 72 255 72 434 -1 148 -3 166 -28 242
-33 99 -108 215 -180 278 -116 103 -301 184 -507 220 -126 23 -449 31 -621 16
-361 -31 -792 -121 -1233 -255 -82 -26 -154 -46 -160 -46 -6 0 -22 21 -36 47
-36 68 -163 193 -245 241 -119 70 -210 95 -355 99 -97 2 -141 -2 -198 -16z
m2733 -186 c206 -36 337 -96 446 -204 118 -118 160 -227 161 -416 0 -127 -17
-222 -70 -380 -41 -126 -178 -403 -270 -550 -214 -340 -519 -722 -699 -877
-54 -47 -199 -190 -323 -319 -532 -552 -596 -610 -753 -685 -87 -41 -190 -56
-349 -52 l-107 3 294 452 c319 492 353 540 442 624 103 98 215 138 384 139
l87 0 41 63 c22 35 41 66 41 70 0 4 -362 7 -805 7 l-804 0 -44 -67 -43 -68
120 -6 c218 -10 233 -36 138 -222 -40 -77 -1192 -1864 -1416 -2197 -93 -137
-202 -252 -271 -285 -72 -34 -161 -54 -277 -61 l-97 -7 -40 -61 -41 -61 242
-5 241 -5 -79 -49 c-1108 -688 -2103 -1191 -3041 -1539 -967 -359 -1771 -502
-2258 -402 -387 80 -580 305 -562 655 17 324 215 744 588 1248 l69 92 493 0
492 0 38 60 c20 33 37 62 37 65 0 3 -46 5 -103 5 -115 0 -160 10 -194 42 -50
47 -26 101 192 438 689 1064 657 1017 741 1088 162 135 516 414 709 559 211
159 522 383 530 383 3 0 5 -26 5 -57 0 -66 -34 -203 -79 -316 -17 -43 -31 -82
-31 -87 0 -6 27 -10 59 -10 56 0 62 2 84 33 13 17 140 211 282 430 l258 399
71 47 c115 78 506 319 720 445 420 248 909 511 1296 699 198 95 226 107 235
92 120 -199 248 -309 430 -371 107 -37 289 -45 398 -19 351 85 586 399 564
755 -3 52 -13 119 -21 147 l-14 53 92 29 c465 149 881 238 1286 275 93 8 398
-3 485 -19z m-2704 -184 c32 -33 36 -58 14 -100 -16 -32 -33 -41 -79 -41 -74
0 -109 98 -52 146 38 33 80 31 117 -5z m-3531 -2192 c70 -31 68 -37 -48 -119
-169 -120 -603 -446 -776 -584 -87 -70 -160 -125 -161 -124 -1 2 122 194 274
426 l275 424 200 -4 c153 -3 209 -8 236 -19z m4220 -1389 c17 -9 20 -21 20
-74 l0 -63 -172 -135 c-228 -177 -295 -228 -302 -228 -5 0 303 478 327 509 13
15 92 10 127 -9z"/>
<path d="M8303 9808 c-176 -271 -323 -499 -327 -505 -5 -10 9 -13 61 -13 l68
0 80 90 c214 240 500 448 788 571 347 149 708 156 846 18 130 -130 99 -408
-89 -794 -32 -66 -82 -159 -110 -207 l-52 -88 -598 0 -598 0 -80 -122 -80
-123 594 -3 c327 -1 594 -5 594 -8 0 -3 -42 -65 -94 -138 -440 -620 -921 -996
-1388 -1087 -192 -37 -435 -21 -547 35 -86 44 -169 164 -231 333 l-22 63 -78
-43 c-42 -23 -88 -49 -101 -58 l-24 -16 23 -94 c86 -350 309 -489 789 -489
436 0 887 138 1353 413 325 193 649 454 871 702 356 400 601 826 664 1156 19
102 19 283 0 373 -18 84 -63 183 -114 251 -78 103 -236 197 -408 242 -79 20
-129 26 -263 30 -236 8 -428 -23 -779 -123 -91 -26 -188 -47 -233 -51 l-77 -6
-11 28 c-10 27 -3 89 15 138 6 15 0 17 -58 17 l-65 0 -319 -492z"/>
<path d="M7017 4480 c-580 -196 -1114 -318 -1627 -372 -63 -6 -228 -12 -366
-12 l-251 -1 -1309 -2009 c-720 -1104 -1320 -2026 -1333 -2047 l-23 -39 4123
2 4123 3 632 970 632 970 -3023 5 -3023 5 835 1285 c459 707 839 1293 844
1303 12 21 34 27 -234 -63z"/>
</g>
</svg>
